<svg width="140" height="140" viewBox="0 0 140 140" fill="none" xmlns="http://www.w3.org/2000/svg">
<circle cx="70" cy="70" r="70" fill="#0C121C"/>
<path d="M40.72 97.96C35.12 97.96 30.2933 96.76 26.24 94.36C22.1867 91.9067 19.0667 88.52 16.88 84.2C14.6933 79.8267 13.6 74.8133 13.6 69.16C13.6 63.4 14.6933 58.36 16.88 54.04C19.0667 49.6667 22.1867 46.2533 26.24 43.8C30.2933 41.2933 35.12 40.04 40.72 40.04C47.6533 40.04 53.3067 41.7733 57.68 45.24C62.1067 48.7067 64.8533 53.5867 65.92 59.88H52.8C52.16 57.0533 50.8 54.8667 48.72 53.32C46.64 51.72 43.9467 50.92 40.64 50.92C37.4933 50.92 34.8 51.6667 32.56 53.16C30.3733 54.6533 28.6933 56.76 27.52 59.48C26.4 62.1467 25.84 65.3733 25.84 69.16C25.84 72.84 26.4 76.04 27.52 78.76C28.6933 81.4267 30.3733 83.5067 32.56 85C34.8 86.44 37.4933 87.16 40.64 87.16C43.9467 87.16 46.6133 86.4667 48.64 85.08C50.72 83.64 52.1067 81.5867 52.8 78.92H65.92C64.8533 84.84 62.1067 89.5067 57.68 92.92C53.3067 96.28 47.6533 97.96 40.72 97.96ZM100.251 97.96C94.6513 97.96 89.8246 96.76 85.7713 94.36C81.7179 91.9067 78.5979 88.52 76.4113 84.2C74.2246 79.8267 73.1313 74.8133 73.1313 69.16C73.1313 63.4 74.2246 58.36 76.4113 54.04C78.5979 49.6667 81.7179 46.2533 85.7713 43.8C89.8246 41.2933 94.6513 40.04 100.251 40.04C107.185 40.04 112.838 41.7733 117.211 45.24C121.638 48.7067 124.385 53.5867 125.451 59.88H112.331C111.691 57.0533 110.331 54.8667 108.251 53.32C106.171 51.72 103.478 50.92 100.171 50.92C97.0246 50.92 94.3313 51.6667 92.0913 53.16C89.9046 54.6533 88.2246 56.76 87.0513 59.48C85.9313 62.1467 85.3713 65.3733 85.3713 69.16C85.3713 72.84 85.9313 76.04 87.0513 78.76C88.2246 81.4267 89.9046 83.5067 92.0913 85C94.3313 86.44 97.0246 87.16 100.171 87.16C103.478 87.16 106.145 86.4667 108.171 85.08C110.251 83.64 111.638 81.5867 112.331 78.92H125.451C124.385 84.84 121.638 89.5067 117.211 92.92C112.838 96.28 107.185 97.96 100.251 97.96Z" fill="url(#paint0_linear_0_1)"/>
<defs>
<linearGradient id="paint0_linear_0_1" x1="130" y1="70" x2="10" y2="70" gradientUnits="userSpaceOnUse">
<stop stop-color="#10B981"/>
<stop offset="1" stop-color="#1098B9"/>
</linearGradient>
</defs>
</svg>
